{"title":"The Draughtsman-s Contract.avi","uid":6898971,"size":1032157468,"categoryP":"video","categoryS":"movies","magnet":"?xt=urn:btih:21f5af193797283c442b26ce02ae7412357d6937&amp;dn=The+Draughtsman-s+Contract.avi&amp;tr=udp%3A%2F%2Ftracker.openbittorrent.com%3A80&amp;tr=udp%3A%2F%2Fopen.demonii.com%3A1337&amp;tr=udp%3A%2F%2Ftracker.coppersurfer.tk%3A6969&amp;tr=udp%3A%2F%2Fexodus.desync.com%3A6969","seeders":3,"leechers":0,"uploader":"-trueevil-","files":1,"time":1324317448,"description":" &lt;a href=&quot;http://www.imdb.com/title/tt0083851/&quot; rel=&quot;nofollow&quot; target=&quot;_NEW&quot;&gt;http://www.imdb.com/title/tt0083851/&lt;/a&gt;\n\nGeneral\nComplete name                    : K:\\The Draughtsman-s Contract.avi\nFormat                           : AVI\nFormat/Info                      : Audio Video Interleave\nFile size                        : 984 MiB\nDuration                         : 1h 43mn\nOverall bit rate                 : 1 334 Kbps\n\nVideo\nID                               : 0\nFormat                           : MPEG-4 Visual\nFormat profile                   : Simple@L3\nFormat settings, BVOP            : No\nFormat settings, QPel            : No\nFormat settings, GMC             : No warppoints\nFormat settings, Matrix          : Default (H.263)\nCodec ID                         : XVID\nCodec ID/Hint                    : XviD\nDuration                         : 1h 43mn\nBit rate                         : 1 193 Kbps\nWidth                            : 720 pixels\nHeight                           : 576 pixels\nDisplay aspect ratio             : 5:4\nFrame rate                       : 25.000 fps\nStandard                         : PAL\nColor space                      : YUV\nChroma subsampling               : 4:2:0\nBit depth                        : 8 bits\nScan type                        : Progressive\nCompression mode                 : Lossy\nBits/(Pixel*Frame)               : 0.115\nStream size                      : 880 MiB (89%)\nWriting library                  : XviD 1.1.0 Beta2 (UTC 2005-04-04)\n\nAudio\nID                               : 1\nFormat                           : MPEG Audio\nFormat version                   : Version 1\nFormat profile                   : Layer 3\nMode                             : Joint stereo\nMode extension                   : MS Stereo\nCodec ID                         : 55\nCodec ID/Hint                    : MP3\nDuration                         : 1h 43mn\nBit rate mode                    : Constant\nBit rate                         : 128 Kbps\nChannel(s)                       : 2 channels\nSampling rate                    : 48.0 KHz\nCompression mode                 : Lossy\nStream size                      : 94.5 MiB (10%)\nAlignment                        : Aligned on interleaves\nInterleave, duration             : 24 ms (0.60 video frame)\nWriting library                  : LAME3.96.1\n\n","torrent":{"xt":"urn:btih:21f5af193797283c442b26ce02ae7412357d6937","amp;dn":"The+Draughtsman-s+Contract.avi","amp;tr":["udp%3A%2F%2Ftracker.openbittorrent.com%3A80","udp%3A%2F%2Fopen.demonii.com%3A1337","udp%3A%2F%2Ftracker.coppersurfer.tk%3A6969","udp%3A%2F%2Fexodus.desync.com%3A6969"],"infoHash":"21f5af193797283c442b26ce02ae7412357d6937","infoHashBuffer":{"type":"Buffer","data":[33,245,175,25,55,151,40,60,68,43,38,206,2,174,116,18,53,125,105,55]},"announce":[],"urlList":[]}}